<svg width="395" height="244" viewBox="0 0 395 244" fill="none" xmlns="http://www.w3.org/2000/svg">
<path d="M157.613 88L154.368 96.0746H169.509V124.672H179.422V96.0746H191.859L194.382 88H157.613Z" fill="#072855"/>
<path d="M234.217 88H200.691V124.672H234.217V116.934H210.605V110.373H234.217V102.803H210.605V96.411H234.217V88Z" fill="#072855"/>
<path d="M268.823 88H260.352L239.624 124.672H250.979L264.317 99.9436H265.038L278.196 124.672H289.011L268.823 88Z" fill="#072855"/>
<path d="M308.297 88H299.825L295.139 124.672H305.593L307.396 103.644H307.936L320.734 124.672H338.758L351.736 103.14H352.457L354.259 124.672H364.353L359.666 88H350.474L330.467 119.794H329.205L308.297 88Z" fill="#072855"/>
<path d="M78.2701 112.378H108.469H108.523L108.559 112.341L131.966 88.3442L132.151 88.1547H131.877H30.1213H30V88.2679V112.264V112.378H30.1213H53.4074V167.049V167.327L53.6155 167.128L78.2357 143.584L78.2701 143.551V143.505V112.378Z" fill="#082956" stroke="black" stroke-width="0.212243" stroke-linecap="round"/>
<path d="M133.332 112.151V88.3812L109.682 112.491L133.332 112.151Z" fill="#008ECE" stroke="black" stroke-width="0.212243"/>
<path d="M109.803 144.298H78.0276L54.0138 167.955L134.181 166.936V128.564H109.803V144.298Z" fill="#008ECE" stroke="black" stroke-width="0.212243"/>
<path d="M169.033 144.017C168.908 144.143 168.711 144.273 168.442 144.408C168.172 144.533 167.86 144.65 167.504 144.757C167.158 144.865 166.803 144.95 166.437 145.013C166.072 145.085 165.726 145.121 165.399 145.121C164.534 145.121 163.755 145.004 163.063 144.771C162.371 144.529 161.78 144.197 161.29 143.775C160.799 143.344 160.425 142.837 160.165 142.254C159.905 141.671 159.776 141.034 159.776 140.343C159.776 139.437 159.92 138.652 160.208 137.988C160.506 137.315 160.905 136.759 161.405 136.32C161.914 135.871 162.496 135.539 163.15 135.324C163.813 135.108 164.505 135.001 165.226 135.001C165.909 135.001 166.534 135.072 167.101 135.216C167.668 135.351 168.149 135.521 168.543 135.727L167.865 137.544C167.692 137.454 167.461 137.365 167.173 137.275C166.884 137.185 166.591 137.114 166.293 137.06C165.995 136.997 165.731 136.966 165.5 136.966C164.923 136.966 164.414 137.033 163.972 137.167C163.529 137.302 163.154 137.504 162.847 137.773C162.549 138.042 162.323 138.379 162.169 138.782C162.015 139.177 161.939 139.639 161.939 140.168C161.939 140.635 162.025 141.057 162.198 141.433C162.371 141.801 162.612 142.115 162.919 142.375C163.236 142.636 163.607 142.833 164.029 142.968C164.462 143.102 164.938 143.169 165.457 143.169C165.755 143.169 166.029 143.152 166.279 143.116C166.529 143.071 166.74 143.004 166.913 142.914V141.716H165.082V139.832H169.033V144.017ZM171.408 135.108H173.499V143.129H178.488V145.013H171.408V135.108ZM179.701 140.074C179.701 139.392 179.84 138.746 180.119 138.136C180.398 137.526 180.782 136.988 181.273 136.521C181.773 136.046 182.349 135.674 183.003 135.404C183.657 135.135 184.358 135.001 185.108 135.001C185.849 135.001 186.545 135.135 187.199 135.404C187.853 135.674 188.43 136.046 188.929 136.521C189.439 136.988 189.833 137.526 190.112 138.136C190.4 138.746 190.544 139.392 190.544 140.074C190.544 140.774 190.4 141.429 190.112 142.039C189.833 142.649 189.439 143.187 188.929 143.654C188.43 144.111 187.853 144.47 187.199 144.731C186.545 144.991 185.849 145.121 185.108 145.121C184.358 145.121 183.657 144.991 183.003 144.731C182.349 144.47 181.773 144.111 181.273 143.654C180.782 143.187 180.398 142.649 180.119 142.039C179.84 141.429 179.701 140.774 179.701 140.074ZM181.864 140.074C181.864 140.514 181.946 140.926 182.109 141.312C182.282 141.689 182.518 142.026 182.816 142.322C183.123 142.609 183.474 142.833 183.868 142.995C184.272 143.156 184.71 143.237 185.18 143.237C185.632 143.237 186.051 143.156 186.435 142.995C186.829 142.833 187.17 142.609 187.459 142.322C187.747 142.026 187.973 141.689 188.136 141.312C188.3 140.926 188.381 140.514 188.381 140.074C188.381 139.626 188.295 139.209 188.122 138.823C187.959 138.437 187.728 138.1 187.43 137.813C187.141 137.517 186.8 137.288 186.406 137.127C186.012 136.966 185.584 136.885 185.123 136.885C184.661 136.885 184.234 136.966 183.839 137.127C183.445 137.288 183.099 137.517 182.801 137.813C182.503 138.1 182.273 138.437 182.109 138.823C181.946 139.209 181.864 139.626 181.864 140.074ZM195.744 135.108C196.849 135.108 197.729 135.319 198.382 135.741C199.036 136.154 199.363 136.773 199.363 137.598C199.363 138.208 199.2 138.719 198.873 139.132C198.555 139.536 198.118 139.841 197.561 140.047C197.013 140.245 196.383 140.343 195.672 140.343L195.34 139.294C196.215 139.294 196.988 139.406 197.661 139.63C198.344 139.855 198.882 140.177 199.276 140.599C199.67 141.012 199.868 141.51 199.868 142.093C199.868 142.631 199.762 143.089 199.55 143.466C199.349 143.833 199.07 144.134 198.714 144.367C198.368 144.592 197.974 144.757 197.532 144.865C197.089 144.964 196.633 145.013 196.162 145.013H192.629V135.108H195.744ZM195.989 139.159C196.402 139.159 196.705 139.042 196.897 138.809C197.099 138.576 197.2 138.311 197.2 138.015C197.2 137.674 197.075 137.419 196.825 137.248C196.585 137.078 196.258 136.992 195.845 136.992H194.72V139.159H195.989ZM196.061 143.196C196.368 143.196 196.647 143.16 196.897 143.089C197.147 143.008 197.344 142.887 197.488 142.725C197.633 142.555 197.705 142.344 197.705 142.093C197.705 141.806 197.618 141.591 197.445 141.447C197.272 141.294 197.046 141.191 196.767 141.137C196.498 141.074 196.215 141.043 195.917 141.043H194.72V143.196H196.061ZM200.402 145.013L205.19 134.718H205.305L210.092 145.013H207.67L204.613 137.773L206.127 136.804L202.464 145.013H200.402ZM203.675 141.433H206.862L207.598 143.075H203.027L203.675 141.433ZM211.639 135.108H213.73V143.129H218.719V145.013H211.639V135.108ZM225.566 135.108H227.657V143.129H232.646V145.013H225.566V135.108ZM233.859 140.074C233.859 139.392 233.998 138.746 234.277 138.136C234.556 137.526 234.94 136.988 235.431 136.521C235.93 136.046 236.507 135.674 237.161 135.404C237.814 135.135 238.516 135.001 239.266 135.001C240.006 135.001 240.703 135.135 241.357 135.404C242.011 135.674 242.587 136.046 243.087 136.521C243.597 136.988 243.991 137.526 244.27 138.136C244.558 138.746 244.702 139.392 244.702 140.074C244.702 140.774 244.558 141.429 244.27 142.039C243.991 142.649 243.597 143.187 243.087 143.654C242.587 144.111 242.011 144.47 241.357 144.731C240.703 144.991 240.006 145.121 239.266 145.121C238.516 145.121 237.814 144.991 237.161 144.731C236.507 144.47 235.93 144.111 235.431 143.654C234.94 143.187 234.556 142.649 234.277 142.039C233.998 141.429 233.859 140.774 233.859 140.074ZM236.022 140.074C236.022 140.514 236.103 140.926 236.267 141.312C236.44 141.689 236.675 142.026 236.973 142.322C237.281 142.609 237.632 142.833 238.026 142.995C238.43 143.156 238.867 143.237 239.338 143.237C239.79 143.237 240.208 143.156 240.593 142.995C240.987 142.833 241.328 142.609 241.617 142.322C241.905 142.026 242.131 141.689 242.294 141.312C242.458 140.926 242.539 140.514 242.539 140.074C242.539 139.626 242.453 139.209 242.28 138.823C242.116 138.437 241.885 138.1 241.588 137.813C241.299 137.517 240.958 137.288 240.564 137.127C240.169 136.966 239.742 136.885 239.281 136.885C238.819 136.885 238.391 136.966 237.997 137.127C237.603 137.288 237.257 137.517 236.959 137.813C236.661 138.1 236.43 138.437 236.267 138.823C236.103 139.209 236.022 139.626 236.022 140.074ZM255.395 144.017C255.27 144.143 255.073 144.273 254.804 144.408C254.535 144.533 254.222 144.65 253.867 144.757C253.521 144.865 253.165 144.95 252.8 145.013C252.434 145.085 252.088 145.121 251.761 145.121C250.896 145.121 250.118 145.004 249.425 144.771C248.733 144.529 248.142 144.197 247.652 143.775C247.162 143.344 246.787 142.837 246.527 142.254C246.268 141.671 246.138 141.034 246.138 140.343C246.138 139.437 246.282 138.652 246.57 137.988C246.868 137.315 247.268 136.759 247.767 136.32C248.277 135.871 248.858 135.539 249.512 135.324C250.175 135.108 250.867 135.001 251.588 135.001C252.271 135.001 252.896 135.072 253.463 135.216C254.03 135.351 254.511 135.521 254.905 135.727L254.227 137.544C254.054 137.454 253.823 137.365 253.535 137.275C253.247 137.185 252.953 137.114 252.655 137.06C252.358 136.997 252.093 136.966 251.862 136.966C251.286 136.966 250.776 137.033 250.334 137.167C249.892 137.302 249.517 137.504 249.209 137.773C248.911 138.042 248.685 138.379 248.531 138.782C248.378 139.177 248.301 139.639 248.301 140.168C248.301 140.635 248.387 141.057 248.56 141.433C248.733 141.801 248.974 142.115 249.281 142.375C249.598 142.636 249.969 142.833 250.391 142.968C250.824 143.102 251.3 143.169 251.819 143.169C252.117 143.169 252.391 143.152 252.641 143.116C252.891 143.071 253.102 143.004 253.275 142.914V141.716H251.444V139.832H255.395V144.017ZM257.77 135.108H259.861V145.013H257.77V135.108ZM268.267 137.504C267.864 137.298 267.45 137.127 267.027 136.992C266.614 136.858 266.224 136.791 265.859 136.791C265.407 136.791 265.052 136.876 264.792 137.046C264.533 137.217 264.403 137.473 264.403 137.813C264.403 138.046 264.499 138.257 264.691 138.446C264.893 138.625 265.148 138.787 265.456 138.93C265.773 139.074 266.099 139.204 266.436 139.321C266.744 139.428 267.046 139.558 267.345 139.711C267.652 139.855 267.926 140.038 268.166 140.263C268.407 140.478 268.599 140.751 268.743 141.084C268.887 141.407 268.96 141.806 268.96 142.281C268.96 142.784 268.82 143.25 268.541 143.681C268.262 144.111 267.854 144.461 267.316 144.731C266.777 144.991 266.114 145.121 265.326 145.121C264.922 145.121 264.509 145.085 264.086 145.013C263.672 144.932 263.264 144.816 262.86 144.663C262.456 144.502 262.067 144.3 261.692 144.058L262.615 142.537C262.865 142.708 263.134 142.86 263.422 142.995C263.72 143.12 264.018 143.219 264.316 143.291C264.614 143.362 264.888 143.398 265.138 143.398C265.388 143.398 265.638 143.367 265.888 143.304C266.148 143.232 266.359 143.116 266.523 142.954C266.696 142.793 266.782 142.568 266.782 142.281C266.782 142.084 266.71 141.904 266.566 141.743C266.431 141.581 266.244 141.433 266.004 141.299C265.773 141.164 265.518 141.048 265.239 140.949C264.912 140.832 264.576 140.698 264.23 140.545C263.884 140.393 263.557 140.209 263.249 139.993C262.951 139.769 262.706 139.496 262.514 139.173C262.331 138.84 262.24 138.437 262.24 137.961C262.24 137.387 262.374 136.889 262.644 136.468C262.922 136.046 263.312 135.714 263.812 135.472C264.311 135.22 264.888 135.081 265.542 135.055C266.398 135.055 267.09 135.149 267.619 135.337C268.157 135.526 268.637 135.75 269.06 136.01L268.267 137.504ZM270.286 135.108H277.438V136.992H274.857V145.013H272.766V136.992H270.286V135.108ZM279.456 135.108H281.547V145.013H279.456V135.108ZM292.246 144.192C292.13 144.282 291.914 144.403 291.597 144.556C291.289 144.708 290.909 144.843 290.458 144.959C290.006 145.076 289.506 145.13 288.958 145.121C288.122 145.103 287.372 144.964 286.708 144.704C286.055 144.434 285.497 144.071 285.036 143.614C284.584 143.156 284.238 142.631 283.998 142.039C283.757 141.447 283.637 140.814 283.637 140.142C283.637 139.388 283.757 138.697 283.998 138.069C284.247 137.441 284.598 136.898 285.05 136.441C285.512 135.983 286.06 135.629 286.694 135.378C287.329 135.126 288.03 135.001 288.799 135.001C289.511 135.001 290.14 135.091 290.688 135.27C291.236 135.449 291.683 135.642 292.029 135.849L291.207 137.692C290.967 137.522 290.645 137.347 290.241 137.167C289.847 136.979 289.391 136.885 288.871 136.885C288.468 136.885 288.078 136.966 287.703 137.127C287.338 137.279 287.011 137.499 286.723 137.786C286.444 138.073 286.223 138.41 286.06 138.796C285.896 139.173 285.814 139.585 285.814 140.034C285.814 140.509 285.887 140.945 286.031 141.339C286.184 141.734 286.401 142.075 286.68 142.362C286.958 142.64 287.29 142.856 287.675 143.008C288.069 143.16 288.511 143.237 289.001 143.237C289.568 143.237 290.054 143.152 290.458 142.981C290.861 142.81 291.169 142.631 291.38 142.443L292.246 144.192ZM300.007 137.504C299.603 137.298 299.19 137.127 298.767 136.992C298.354 136.858 297.964 136.791 297.599 136.791C297.147 136.791 296.791 136.876 296.532 137.046C296.272 137.217 296.142 137.473 296.142 137.813C296.142 138.046 296.239 138.257 296.431 138.446C296.633 138.625 296.888 138.787 297.195 138.93C297.512 139.074 297.839 139.204 298.176 139.321C298.483 139.428 298.786 139.558 299.084 139.711C299.392 139.855 299.666 140.038 299.906 140.263C300.146 140.478 300.339 140.751 300.483 141.084C300.627 141.407 300.699 141.806 300.699 142.281C300.699 142.784 300.56 143.25 300.281 143.681C300.002 144.111 299.594 144.461 299.055 144.731C298.517 144.991 297.854 145.121 297.065 145.121C296.662 145.121 296.248 145.085 295.825 145.013C295.412 144.932 295.003 144.816 294.6 144.663C294.196 144.502 293.806 144.3 293.432 144.058L294.354 142.537C294.605 142.708 294.874 142.86 295.162 142.995C295.46 143.12 295.758 143.219 296.056 143.291C296.354 143.362 296.628 143.398 296.878 143.398C297.128 143.398 297.378 143.367 297.628 143.304C297.887 143.232 298.099 143.116 298.262 142.954C298.435 142.793 298.522 142.568 298.522 142.281C298.522 142.084 298.45 141.904 298.305 141.743C298.171 141.581 297.983 141.433 297.743 141.299C297.512 141.164 297.258 141.048 296.979 140.949C296.652 140.832 296.316 140.698 295.969 140.545C295.623 140.393 295.297 140.209 294.989 139.993C294.691 139.769 294.446 139.496 294.254 139.173C294.071 138.84 293.98 138.437 293.98 137.961C293.98 137.387 294.114 136.889 294.383 136.468C294.662 136.046 295.052 135.714 295.551 135.472C296.051 135.22 296.628 135.081 297.282 135.055C298.137 135.055 298.83 135.149 299.358 135.337C299.897 135.526 300.377 135.75 300.8 136.01L300.007 137.504ZM310.651 135.108C311.527 135.108 312.266 135.247 312.871 135.526C313.477 135.795 313.938 136.181 314.256 136.683C314.573 137.176 314.731 137.764 314.731 138.446C314.731 138.85 314.667 139.258 314.53 139.67C314.407 140.074 314.198 140.442 313.909 140.774C313.632 141.106 313.253 141.375 312.77 141.581C312.302 141.779 311.718 141.878 311.026 141.878H309.526V145.013H307.435V135.108H310.651ZM311.011 139.98C311.328 139.98 311.595 139.931 311.804 139.832C312.017 139.724 312.179 139.594 312.294 139.442C312.421 139.28 312.507 139.114 312.554 138.944C312.612 138.773 312.641 138.625 312.641 138.5C312.641 138.401 312.623 138.271 312.583 138.109C312.554 137.939 312.489 137.769 312.381 137.598C312.276 137.427 312.114 137.284 311.891 137.167C311.682 137.051 311.393 136.992 311.026 136.992H309.526V139.98H311.011ZM318.203 135.108L321.303 142.241L320.092 142.012L322.904 135.108H325.384L320.539 145.471L315.694 135.108H318.203ZM326.501 135.108H333.653V136.992H331.072V145.013H328.981V136.992H326.501V135.108ZM340.358 135.108H342.449V143.129H347.438V145.013H340.358V135.108ZM347.806 135.108H354.958V136.992H352.377V145.013H350.286V136.992H347.806V135.108ZM356.973 145.013V135.108H360.146C361.213 135.108 362.121 135.256 362.871 135.552C363.621 135.849 364.223 136.243 364.673 136.737C365.135 137.23 365.474 137.782 365.683 138.392C365.895 139.002 366 139.617 366 140.236C366 140.971 365.856 141.635 365.567 142.227C365.29 142.81 364.904 143.313 364.414 143.735C363.924 144.147 363.358 144.466 362.712 144.69C362.071 144.905 361.386 145.013 360.665 145.013H356.973ZM359.064 143.129H360.304C360.834 143.129 361.314 143.066 361.746 142.941C362.179 142.806 362.55 142.613 362.857 142.362C363.174 142.111 363.415 141.797 363.577 141.42C363.751 141.034 363.837 140.595 363.837 140.101C363.837 139.455 363.722 138.93 363.491 138.527C363.271 138.114 362.994 137.796 362.655 137.571C362.33 137.347 361.991 137.194 361.645 137.114C361.299 137.024 361.007 136.979 360.766 136.979H359.064V143.129Z" fill="#06459C"/>
<path d="M159.691 156.743H165.972V157.99H163.493V165.536H162.104V157.99H159.691V156.743ZM170.099 165.536V156.125H171.397V161.612L171.384 161.406C171.565 161.075 171.842 160.8 172.214 160.582C172.586 160.364 173.032 160.255 173.551 160.255C174.061 160.255 174.481 160.397 174.81 160.679C175.147 160.962 175.32 161.329 175.329 161.781V165.536H173.992V162.217C173.984 161.959 173.901 161.749 173.746 161.587C173.59 161.418 173.348 161.329 173.019 161.321C172.725 161.321 172.457 161.406 172.214 161.575C171.972 161.737 171.782 161.963 171.643 162.254C171.505 162.536 171.436 162.859 171.436 163.223V165.536H170.099ZM179.839 160.461H181.176V165.536H179.839V160.461ZM179.761 158.644C179.761 158.451 179.844 158.289 180.008 158.16C180.172 158.031 180.35 157.966 180.54 157.966C180.739 157.966 180.916 158.031 181.072 158.16C181.228 158.289 181.306 158.451 181.306 158.644C181.306 158.838 181.228 159 181.072 159.129C180.916 159.25 180.739 159.31 180.54 159.31C180.35 159.31 180.172 159.25 180.008 159.129C179.844 159 179.761 158.838 179.761 158.644ZM186.87 160.461L186.987 161.624L186.935 161.466C187.116 161.103 187.398 160.812 187.778 160.594C188.159 160.368 188.609 160.255 189.128 160.255C189.638 160.255 190.058 160.397 190.387 160.679C190.724 160.962 190.897 161.329 190.906 161.781V165.536H189.569V162.217C189.561 161.959 189.478 161.749 189.323 161.587C189.167 161.418 188.925 161.329 188.596 161.321C188.302 161.321 188.034 161.406 187.791 161.575C187.549 161.737 187.359 161.959 187.22 162.242C187.082 162.524 187.013 162.851 187.013 163.223V165.536H185.676V160.461H186.87ZM195.416 165.536V156.125H196.753V165.536H195.416ZM198.077 162.145L200.568 165.536H199.011L197.194 162.859L198.077 162.145ZM196.338 163.974L196.208 162.774L199.504 160.352L200.322 161.018L196.338 163.974ZM211.368 156.743H212.757V164.288H217.467V165.536H211.368V156.743ZM221.192 162.944C221.192 162.435 221.321 161.979 221.581 161.575C221.84 161.164 222.2 160.841 222.658 160.606C223.117 160.372 223.64 160.255 224.228 160.255C224.825 160.255 225.349 160.372 225.799 160.606C226.249 160.841 226.595 161.164 226.837 161.575C227.088 161.979 227.213 162.435 227.213 162.944C227.213 163.453 227.088 163.913 226.837 164.325C226.595 164.737 226.249 165.064 225.799 165.306C225.349 165.54 224.821 165.657 224.215 165.657C223.636 165.657 223.117 165.548 222.658 165.33C222.208 165.112 221.849 164.801 221.581 164.397C221.321 163.986 221.192 163.501 221.192 162.944ZM222.541 162.956C222.541 163.271 222.615 163.558 222.762 163.816C222.909 164.066 223.108 164.268 223.359 164.422C223.61 164.567 223.891 164.64 224.202 164.64C224.523 164.64 224.808 164.567 225.059 164.422C225.31 164.268 225.504 164.066 225.643 163.816C225.79 163.558 225.864 163.271 225.864 162.956C225.864 162.641 225.79 162.359 225.643 162.108C225.504 161.858 225.31 161.656 225.059 161.503C224.808 161.349 224.523 161.273 224.202 161.273C223.882 161.273 223.597 161.349 223.346 161.503C223.095 161.656 222.896 161.862 222.749 162.12C222.61 162.371 222.541 162.649 222.541 162.956ZM233.92 168.055C233.496 168.055 233.128 168.011 232.817 167.922C232.506 167.833 232.224 167.708 231.973 167.547C231.731 167.393 231.498 167.228 231.273 167.05L232.064 166.19C232.333 166.424 232.609 166.61 232.895 166.747C233.18 166.892 233.513 166.965 233.894 166.965C234.275 166.965 234.599 166.905 234.867 166.783C235.144 166.67 235.356 166.509 235.503 166.299C235.65 166.089 235.724 165.839 235.724 165.548L235.737 164.228L235.828 164.47C235.681 164.801 235.408 165.084 235.01 165.318C234.612 165.544 234.123 165.657 233.544 165.657C233.051 165.657 232.592 165.54 232.168 165.306C231.753 165.072 231.42 164.753 231.169 164.349C230.918 163.945 230.792 163.489 230.792 162.98C230.792 162.447 230.922 161.979 231.182 161.575C231.45 161.164 231.8 160.841 232.233 160.606C232.666 160.364 233.128 160.243 233.622 160.243C234.106 160.243 234.539 160.332 234.919 160.51C235.3 160.679 235.586 160.893 235.776 161.151L235.698 161.357L235.841 160.461H237.074V165.56C237.074 166.029 236.94 166.448 236.671 166.82C236.412 167.199 236.048 167.498 235.581 167.716C235.114 167.942 234.56 168.055 233.92 168.055ZM232.142 162.944C232.142 163.259 232.22 163.546 232.376 163.804C232.531 164.062 232.743 164.268 233.012 164.422C233.289 164.567 233.596 164.64 233.933 164.64C234.236 164.64 234.508 164.591 234.751 164.494C234.993 164.389 235.196 164.252 235.361 164.083C235.534 163.905 235.659 163.699 235.737 163.465V162.411C235.659 162.177 235.534 161.979 235.361 161.818C235.188 161.648 234.98 161.515 234.738 161.418C234.495 161.321 234.227 161.273 233.933 161.273C233.596 161.273 233.289 161.345 233.012 161.491C232.743 161.628 232.531 161.822 232.376 162.072C232.22 162.322 232.142 162.613 232.142 162.944ZM241.583 160.461H242.92V165.536H241.583V160.461ZM241.505 158.644C241.505 158.451 241.587 158.289 241.752 158.16C241.916 158.031 242.093 157.966 242.284 157.966C242.483 157.966 242.66 158.031 242.816 158.16C242.972 158.289 243.049 158.451 243.049 158.644C243.049 158.838 242.972 159 242.816 159.129C242.66 159.25 242.483 159.31 242.284 159.31C242.093 159.31 241.916 159.25 241.752 159.129C241.587 159 241.505 158.838 241.505 158.644ZM249.003 165.645C248.605 165.645 248.22 165.58 247.848 165.451C247.476 165.314 247.169 165.116 246.927 164.858L247.498 164.155C247.731 164.357 247.965 164.51 248.199 164.615C248.441 164.712 248.67 164.761 248.886 164.761C249.059 164.761 249.215 164.745 249.354 164.712C249.492 164.672 249.605 164.607 249.691 164.519C249.778 164.43 249.821 164.313 249.821 164.167C249.821 163.998 249.76 163.865 249.639 163.768C249.518 163.671 249.362 163.59 249.172 163.525C248.982 163.461 248.778 163.4 248.562 163.344C248.103 163.206 247.757 163.013 247.524 162.762C247.29 162.504 247.173 162.201 247.173 161.854C247.173 161.588 247.243 161.337 247.381 161.103C247.528 160.861 247.749 160.663 248.043 160.51C248.337 160.356 248.7 160.279 249.133 160.279C249.531 160.279 249.881 160.324 250.184 160.413C250.487 160.493 250.768 160.635 251.028 160.837L250.509 161.587C250.353 161.442 250.167 161.333 249.951 161.26C249.743 161.18 249.553 161.135 249.38 161.127C249.224 161.127 249.081 161.151 248.951 161.2C248.822 161.24 248.718 161.305 248.64 161.394C248.562 161.474 248.523 161.571 248.523 161.684C248.514 161.846 248.571 161.979 248.692 162.084C248.822 162.181 248.986 162.262 249.185 162.326C249.384 162.383 249.579 162.443 249.769 162.508C250.037 162.581 250.275 162.682 250.483 162.811C250.69 162.932 250.855 163.081 250.976 163.259C251.097 163.437 251.158 163.663 251.158 163.937C251.158 164.236 251.08 164.519 250.924 164.785C250.768 165.043 250.53 165.253 250.21 165.415C249.89 165.568 249.488 165.645 249.003 165.645ZM255.791 158.233H257.128V160.473H258.581V161.454H257.128V165.536H255.791V161.454H254.831V160.473H255.791V158.233ZM262.49 160.461H263.827V165.536H262.49V160.461ZM262.412 158.644C262.412 158.451 262.495 158.289 262.659 158.16C262.823 158.031 263.001 157.966 263.191 157.966C263.39 157.966 263.567 158.031 263.723 158.16C263.879 158.289 263.957 158.451 263.957 158.644C263.957 158.838 263.879 159 263.723 159.129C263.567 159.25 263.39 159.31 263.191 159.31C263.001 159.31 262.823 159.25 262.659 159.129C262.495 159 262.412 158.838 262.412 158.644ZM272.778 165.064C272.536 165.249 272.242 165.395 271.896 165.5C271.558 165.605 271.217 165.657 270.87 165.657C270.273 165.657 269.746 165.548 269.287 165.33C268.837 165.112 268.487 164.805 268.236 164.41C267.985 164.014 267.86 163.542 267.86 162.992C267.86 162.451 267.994 161.983 268.262 161.587C268.53 161.184 268.885 160.877 269.326 160.667C269.767 160.449 270.235 160.34 270.728 160.34C271.178 160.34 271.576 160.396 271.922 160.51C272.268 160.623 272.566 160.78 272.817 160.982L272.155 161.793C272.008 161.68 271.822 161.579 271.597 161.491C271.381 161.402 271.13 161.357 270.844 161.357C270.542 161.357 270.265 161.43 270.014 161.575C269.763 161.713 269.564 161.906 269.417 162.157C269.27 162.399 269.196 162.678 269.196 162.992C269.196 163.291 269.27 163.57 269.417 163.828C269.573 164.079 269.785 164.276 270.053 164.422C270.321 164.567 270.628 164.64 270.974 164.64C271.199 164.64 271.407 164.611 271.597 164.555C271.788 164.49 271.956 164.401 272.103 164.288L272.778 165.064ZM278.358 165.645C277.96 165.645 277.575 165.58 277.203 165.451C276.831 165.314 276.524 165.116 276.281 164.858L276.852 164.155C277.086 164.357 277.32 164.51 277.553 164.615C277.795 164.712 278.025 164.761 278.241 164.761C278.414 164.761 278.57 164.745 278.708 164.712C278.847 164.672 278.959 164.607 279.046 164.519C279.132 164.43 279.175 164.313 279.175 164.167C279.175 163.998 279.115 163.865 278.994 163.768C278.873 163.671 278.717 163.59 278.526 163.525C278.336 163.461 278.133 163.4 277.917 163.344C277.458 163.206 277.112 163.013 276.878 162.762C276.645 162.504 276.528 162.201 276.528 161.854C276.528 161.588 276.597 161.337 276.736 161.103C276.883 160.861 277.103 160.663 277.397 160.51C277.692 160.356 278.055 160.279 278.488 160.279C278.886 160.279 279.236 160.324 279.539 160.413C279.842 160.493 280.123 160.635 280.382 160.837L279.863 161.587C279.707 161.442 279.521 161.333 279.305 161.26C279.098 161.18 278.907 161.135 278.734 161.127C278.578 161.127 278.436 161.151 278.306 161.2C278.176 161.24 278.072 161.305 277.994 161.394C277.917 161.474 277.878 161.571 277.878 161.684C277.869 161.846 277.925 161.979 278.046 162.084C278.176 162.181 278.34 162.262 278.539 162.326C278.738 162.383 278.933 162.443 279.123 162.508C279.392 162.581 279.63 162.682 279.837 162.811C280.045 162.932 280.209 163.081 280.33 163.259C280.452 163.437 280.512 163.663 280.512 163.937C280.512 164.236 280.434 164.519 280.278 164.785C280.123 165.043 279.885 165.253 279.565 165.415C279.245 165.568 278.842 165.645 278.358 165.645ZM285.808 164.47C285.617 164.898 285.427 165.322 285.237 165.742C285.055 166.162 284.869 166.586 284.679 167.014H283.601C283.774 166.586 283.943 166.162 284.108 165.742C284.272 165.322 284.441 164.898 284.614 164.47H285.808ZM295.936 156.743H302.219V157.99H299.739V165.536H298.35V157.99H295.936V156.743ZM306.346 165.536V156.125H307.644V161.612L307.63 161.406C307.81 161.075 308.088 160.8 308.459 160.582C308.834 160.364 309.277 160.255 309.796 160.255C310.308 160.255 310.726 160.397 311.054 160.679C311.393 160.962 311.566 161.329 311.574 161.781V165.536H310.24V162.217C310.229 161.959 310.146 161.749 309.991 161.587C309.836 161.418 309.594 161.329 309.266 161.321C308.971 161.321 308.704 161.406 308.459 161.575C308.217 161.737 308.026 161.963 307.889 162.254C307.752 162.536 307.68 162.859 307.68 163.223V165.536H306.346ZM316.083 160.461H317.421V165.536H316.083V160.461ZM316.008 158.644C316.008 158.451 316.09 158.289 316.253 158.16C316.418 158.031 316.595 157.966 316.786 157.966C316.984 157.966 317.161 158.031 317.316 158.16C317.475 158.289 317.55 158.451 317.55 158.644C317.55 158.838 317.475 159 317.316 159.129C317.161 159.25 316.984 159.31 316.786 159.31C316.595 159.31 316.418 159.25 316.253 159.129C316.09 159 316.008 158.838 316.008 158.644ZM323.116 160.461L323.232 161.624L323.181 161.466C323.361 161.103 323.643 160.812 324.025 160.594C324.403 160.368 324.854 160.255 325.373 160.255C325.885 160.255 326.303 160.397 326.631 160.679C326.97 160.962 327.143 161.329 327.15 161.781V165.536H325.816V162.217C325.806 161.959 325.723 161.749 325.568 161.587C325.413 161.418 325.171 161.329 324.843 161.321C324.547 161.321 324.281 161.406 324.036 161.575C323.794 161.737 323.603 161.959 323.466 162.242C323.329 162.524 323.257 162.851 323.257 163.223V165.536H321.923V160.461H323.116ZM331.663 165.536V156.125H332.997V165.536H331.663ZM334.324 162.145L336.815 165.536H335.258L333.441 162.859L334.324 162.145ZM332.583 163.974L332.453 162.774L335.751 160.352L336.566 161.018L332.583 163.974ZM348.859 162.399C348.859 162.77 348.96 163.106 349.158 163.404C349.356 163.703 349.619 163.941 349.951 164.119C350.279 164.297 350.647 164.385 351.054 164.385C351.487 164.385 351.869 164.297 352.208 164.119C352.547 163.941 352.81 163.703 353.001 163.404C353.199 163.106 353.296 162.77 353.296 162.399V156.743H354.659V162.435C354.659 163.073 354.5 163.634 354.18 164.119C353.859 164.595 353.426 164.967 352.882 165.233C352.338 165.5 351.728 165.633 351.054 165.633C350.394 165.633 349.792 165.5 349.248 165.233C348.704 164.967 348.271 164.595 347.95 164.119C347.64 163.634 347.485 163.073 347.485 162.435V156.743H348.859V162.399ZM364.54 158.426C364.212 158.265 363.859 158.128 363.477 158.014C363.094 157.901 362.727 157.845 362.373 157.845C361.89 157.845 361.505 157.95 361.22 158.16C360.932 158.362 360.791 158.64 360.791 158.996C360.791 159.246 360.885 159.464 361.076 159.65C361.267 159.835 361.512 159.997 361.815 160.134C362.118 160.271 362.438 160.401 362.777 160.522C363.062 160.619 363.343 160.736 363.621 160.873C363.906 161.002 364.161 161.164 364.385 161.357C364.619 161.551 364.8 161.793 364.929 162.084C365.07 162.367 365.138 162.714 365.138 163.126C365.138 163.594 365.012 164.018 364.76 164.397C364.518 164.777 364.165 165.08 363.696 165.306C363.239 165.524 362.68 165.633 362.024 165.633C361.624 165.633 361.234 165.592 360.856 165.512C360.485 165.423 360.128 165.31 359.792 165.173C359.461 165.027 359.165 164.87 358.895 164.7L359.518 163.695C359.727 163.832 359.965 163.965 360.232 164.095C360.499 164.216 360.777 164.313 361.061 164.385C361.357 164.458 361.634 164.494 361.894 164.494C362.179 164.494 362.46 164.45 362.738 164.361C363.015 164.264 363.242 164.119 363.426 163.925C363.606 163.723 363.696 163.461 363.696 163.138C363.696 162.863 363.614 162.633 363.451 162.447C363.296 162.254 363.084 162.088 362.813 161.951C362.554 161.814 362.273 161.692 361.97 161.587C361.678 161.483 361.379 161.365 361.076 161.236C360.773 161.107 360.492 160.954 360.232 160.776C359.973 160.59 359.76 160.364 359.598 160.098C359.439 159.823 359.363 159.488 359.363 159.092C359.363 158.624 359.479 158.216 359.713 157.869C359.955 157.514 360.29 157.235 360.712 157.033C361.137 156.832 361.624 156.719 362.179 156.694C362.81 156.694 363.361 156.767 363.826 156.912C364.295 157.058 364.709 157.231 365.074 157.433L364.54 158.426Z" fill="black"/>
<path d="M132.604 88.3812L53.8925 167.389" stroke="white" stroke-width="1.27346" stroke-linecap="round"/>
</svg>
